
<svg width="800" height="418" version="1.1" viewBox="0 0 211.67 110.6" xmlns="http://www.w3.org/2000/svg" xmlns:cc="http://creativecommons.org/ns#" xmlns:dc="http://purl.org/dc/elements/1.1/" xmlns:rdf="http://www.w3.org/1999/02/22-rdf-syntax-ns#" xmlns:xlink="http://www.w3.org/1999/xlink">
 <defs>
  <linearGradient id="a" x1="-139.34" x2="323.61" y1="-36.821" y2="-146.27" gradientTransform="translate(3.7579e-7 -.0031725)" gradientUnits="userSpaceOnUse">
   <stop stop-color="#007fff" offset="0"/>
   <stop stop-color="#ff49d1" offset="1"/>
  </linearGradient>
 </defs>
 <metadata>
  <rdf:RDF>
   <cc:Work rdf:about="">
    <dc:format>image/svg+xml</dc:format>
    <dc:type rdf:resource="http://purl.org/dc/dcmitype/StillImage"/>
    <dc:title/>
   </cc:Work>
  </rdf:RDF>
 </metadata>
 <text transform="matrix(.8235 0 0 .8235 .034272 1.214)" fill="#000000" font-family="sans-serif" font-size="10.583px" style="line-height:0.9;shape-inside:url(#rect1669);white-space:pre" xml:space="preserve"/>
 <text transform="matrix(.8235 0 0 .8235 .034272 1.214)" fill="#000000" font-family="sans-serif" font-size="10.583px" style="line-height:0.9;shape-inside:url(#rect1681);white-space:pre" xml:space="preserve"/>
 <text transform="matrix(1.2345 0 0 1.2345 37.637 21.064)" fill="#ffffff" fill-opacity=".10335" font-family="sans-serif" font-size="2.8222px" style="line-height:1.25;shape-inside:url(#rect9649);white-space:pre" xml:space="preserve"><tspan x="105.21875" y="71.082941"><tspan fill="#ffffff" fill-opacity=".10335">{{ now(utc=true) | date(format="%Y-%m-%d %H:%M:%S UTC") }}</tspan></tspan></text>
 <text transform="matrix(.8235 0 0 .8235 .034272 1.214)" font-family="sans-serif" font-size="2.8222px" style="line-height:1.25;shape-inside:url(#rect11123);white-space:pre" xml:space="preserve"/>
 <rect width="211.67" height="110.6" fill="#fefefe" fill-rule="evenodd" style="paint-order:stroke markers fill"/>
 <rect transform="scale(1,-1)" x="-1.7764e-15" y="-110.6" width="211.67" height="16" fill="url(#a)" fill-rule="evenodd" style="paint-order:markers fill stroke"/>
 <g transform="matrix(.61725 0 0 .61725 .19417 -1.6619)">
  <g transform="matrix(.56497 0 0 .56497 5.1975 157.51)" stroke="#fff" stroke-linecap="round">
   <g transform="matrix(.4614 0 0 .4614 -18.074 -13.326)" stroke-width="2.3" style="paint-order:stroke fill markers">
    <g transform="translate(-4.7302 9.9297)" stroke="#fff" stroke-linecap="round" stroke-width="2.3" style="paint-order:stroke fill markers">
     <g fill="#f04b4b" stroke="#fff" stroke-linecap="round" stroke-width="2.3" style="paint-order:stroke fill markers">
      <g transform="translate(-21.682 -4.325)" stroke="#fff" stroke-linecap="round" stroke-width="2.3" style="paint-order:stroke fill markers">
       <path d="m123.68 48.356 7.961 4.5963v27.444l-23.767 13.722-15.857-9.1551" fill="none" style="paint-order:stroke fill markers"/>
       <path d="m107.87 94.119 0.0165-27.443" fill="#f04b4b" style="paint-order:stroke fill markers"/>
       <path d="m107.89 66.676 23.751-13.724" fill="#f04b4b" style="paint-order:stroke fill markers"/>
      </g>
     </g>
    </g>
   </g>
   <g transform="matrix(.4614 0 0 .4614 -30.044 -19.974)" fill="none" stroke-dasharray="4.836, 4.836" stroke-dashoffset="13.299" stroke-linejoin="round" stroke-miterlimit="0" stroke-width="2.418" style="paint-order:markers fill stroke">
    <g transform="translate(-11.036 6.2362)" fill="none" stroke="#fff" stroke-dasharray="4.836, 4.836" stroke-dashoffset="13.299" stroke-linecap="round" stroke-linejoin="round" stroke-miterlimit="0" stroke-width="2.418" style="paint-order:markers fill stroke">
     <g fill="none" stroke="#fff" stroke-dasharray="4.836, 4.836" stroke-dashoffset="13.299" stroke-linecap="round" stroke-linejoin="round" stroke-miterlimit="0" stroke-width="2.418" style="paint-order:markers fill stroke">
      <g transform="translate(2.3231 .20229)" fill="none" stroke="#fff" stroke-dasharray="4.836, 4.836" stroke-dashoffset="13.299" stroke-linecap="round" stroke-linejoin="round" stroke-miterlimit="0" stroke-width="2.418" style="paint-order:markers fill stroke">
       <g transform="translate(-18.774 -6.6742)" fill="none" stroke="#fff" stroke-dasharray="4.836, 4.836" stroke-dashoffset="13.299" stroke-linecap="round" stroke-linejoin="round" stroke-miterlimit="0" stroke-width="2.418" style="paint-order:markers fill stroke">
        <path d="m134.91 86.923-23.784-13.724m7.9159 32.014-7.9159-4.5703v-27.444l23.767-13.722 15.804 9.1243" fill="none" stroke="#fff" stroke-dasharray="4.836, 4.836" stroke-dashoffset="13.299" stroke-linecap="round" stroke-linejoin="round" stroke-miterlimit="0" stroke-width="2.418" style="paint-order:markers fill stroke"/>
       </g>
      </g>
     </g>
    </g>
   </g>
  </g>
  <text transform="translate(-6.6414 158.14)" fill="#ffffff" font-family="sans-serif" font-size="10.583px" style="line-height:1.25;shape-inside:url(#rect1675-6-3);white-space:pre" xml:space="preserve"><tspan x="33.34375" y="14.080537"><tspan>{{ config.title }}</tspan></tspan></text>
 </g>
 <g transform="matrix(.61725 0 0 .61725 16.011 52.597)" style="shape-inside:url(#rect835-3);white-space:pre" aria-label="Missing Transaction">
  <g transform="translate(-5.6792 49.202)" style="shape-inside:url(#rect16190);white-space:pre" aria-label="Missing Transactions">
   <path d="m46.61-20.719 4.1748 11.788 4.1525-11.788h4.3981v16.253h-3.36v-4.4428l0.33488-7.6688-4.3869 12.112h-2.2995l-4.3758-12.1 0.33488 7.6576v4.4428h-3.3488v-16.253z"/>
   <path d="m65.453-4.4666h-3.2372v-12.078h3.2372zm-3.4269-15.204q0-0.72558 0.48-1.1944 0.49116-0.46883 1.3284-0.46883 0.82604 0 1.3172 0.46883 0.49116 0.46883 0.49116 1.1944 0 0.73674-0.50232 1.2056-0.49116 0.46883-1.306 0.46883-0.81488 0-1.3172-0.46883-0.49116-0.46883-0.49116-1.2056z"/>
   <path d="m74.651-7.8042q0-0.59162-0.59162-0.9265-0.58046-0.34604-1.8753-0.61395-4.3088-0.90418-4.3088-3.6614 0-1.6074 1.3284-2.679 1.3395-1.0828 3.4939-1.0828 2.2995 0 3.6725 1.0828 1.3842 1.0828 1.3842 2.813h-3.226q0-0.69209-0.44651-1.1386-0.44651-0.45767-1.3953-0.45767-0.81488 0-1.2614 0.36837t-0.44651 0.93767q0 0.53581 0.50232 0.87069 0.51348 0.32372 1.7191 0.5693 1.2056 0.23442 2.0316 0.53581 2.5563 0.93767 2.5563 3.2483 0 1.6521-1.4177 2.679-1.4177 1.0158-3.6614 1.0158-1.5181 0-2.7014-0.53581-1.1721-0.54697-1.8418-1.4846-0.66976-0.94883-0.66976-2.0428h3.0586q0.04465 0.85953 0.63627 1.3172 0.59162 0.45767 1.5851 0.45767 0.9265 0 1.3953-0.34604 0.48-0.35721 0.48-0.9265z"/>
   <path d="m86.405-7.8042q0-0.59162-0.59162-0.9265-0.58046-0.34604-1.8753-0.61395-4.3088-0.90418-4.3088-3.6614 0-1.6074 1.3284-2.679 1.3395-1.0828 3.4939-1.0828 2.2995 0 3.6725 1.0828 1.3842 1.0828 1.3842 2.813h-3.226q0-0.69209-0.44651-1.1386-0.44651-0.45767-1.3953-0.45767-0.81488 0-1.2614 0.36837-0.44651 0.36837-0.44651 0.93767 0 0.53581 0.50232 0.87069 0.51348 0.32372 1.7191 0.5693 1.2056 0.23442 2.0316 0.53581 2.5563 0.93767 2.5563 3.2483 0 1.6521-1.4177 2.679-1.4177 1.0158-3.6614 1.0158-1.5181 0-2.7014-0.53581-1.1721-0.54697-1.8418-1.4846-0.66976-0.94883-0.66976-2.0428h3.0586q0.04465 0.85953 0.63627 1.3172 0.59162 0.45767 1.5851 0.45767 0.9265 0 1.3953-0.34604 0.48-0.35721 0.48-0.9265z"/>
   <path d="m95.023-4.4666h-3.2372v-12.078h3.2372zm-3.4269-15.204q0-0.72558 0.48-1.1944 0.49116-0.46883 1.3284-0.46883 0.82604 0 1.3172 0.46883 0.49116 0.46883 0.49116 1.1944 0 0.73674-0.50232 1.2056-0.49116 0.46883-1.306 0.46883-0.81488 0-1.3172-0.46883-0.49116-0.46883-0.49116-1.2056z"/>
   <path d="m100.65-16.545 0.10046 1.3953q1.2949-1.6186 3.4716-1.6186 1.92 0 2.8576 1.1274 0.93767 1.1274 0.95999 3.3711v7.8027h-3.226v-7.7246q0-1.027-0.4465-1.4846-0.44651-0.46883-1.4846-0.46883-1.3618 0-2.0428 1.1609v8.5171h-3.226v-12.078z"/>
   <path d="m110.01-10.595q0-2.7795 1.3172-4.4762 1.3284-1.6967 3.5721-1.6967 1.987 0 3.0921 1.3618l0.13396-1.1386h2.9246v11.676q0 1.5851-0.72557 2.7572-0.71441 1.1721-2.0204 1.786t-3.0586 0.61395q-1.3284 0-2.5897-0.53581-1.2614-0.52465-1.9088-1.3618l1.4288-1.9646q1.2056 1.3507 2.9246 1.3507 1.2837 0 1.9981-0.69209 0.71441-0.68092 0.71441-1.9423v-0.64744q-1.1163 1.2614-2.9358 1.2614-2.1767 0-3.5274-1.6967-1.3395-1.7079-1.3395-4.5209zm3.226 0.23442q0 1.6409 0.65859 2.5786 0.6586 0.9265 1.8084 0.9265 1.4735 0 2.1098-1.1051v-5.079q-0.64744-1.1051-2.0874-1.1051-1.1609 0-1.8307 0.94883-0.65859 0.94883-0.65859 2.8353z"/>
   <path d="m141-18.007h-4.9786v13.54h-3.3488v-13.54h-4.9116v-2.7125h13.239z"/>
   <path d="m148.76-13.52q-0.6586-0.0893-1.1609-0.0893-1.8307 0-2.4 1.2391v7.9032h-3.226v-12.078h3.0474l0.0893 1.44q0.97116-1.6632 2.6902-1.6632 0.53581 0 1.0046 0.14512z"/>
   <path d="m156.98-4.4666q-0.22325-0.43535-0.32372-1.0828-1.1721 1.306-3.0474 1.306-1.7749 0-2.947-1.027-1.1609-1.027-1.1609-2.5897 0-1.92 1.4177-2.947 1.4288-1.027 4.119-1.0381h1.4846v-0.69209q0-0.8372-0.43534-1.3395-0.42419-0.50232-1.3507-0.50232-0.81488 0-1.2837 0.3907-0.45767 0.39069-0.45767 1.0716h-3.226q0-1.0493 0.64744-1.9423 0.64743-0.89302 1.8307-1.3953 1.1832-0.51348 2.6567-0.51348 2.2325 0 3.5386 1.1274 1.3172 1.1163 1.3172 3.1479v5.2353q0.0112 1.7191 0.48 2.6009v0.18977zm-2.6679-2.2437q0.71441 0 1.3172-0.31256 0.60278-0.32372 0.89301-0.85953v-2.0763h-1.2056q-2.4223 0-2.5786 1.6744l-0.0112 0.18977q0 0.60279 0.42418 0.99348t1.1609 0.39069z"/>
   <path d="m165.2-16.545 0.10046 1.3953q1.2949-1.6186 3.4716-1.6186 1.92 0 2.8576 1.1274 0.93767 1.1274 0.95999 3.3711v7.8027h-3.226v-7.7246q0-1.027-0.44651-1.4846-0.4465-0.46883-1.4846-0.46883-1.3618 0-2.0428 1.1609v8.5171h-3.226v-12.078z"/>
   <path d="m181.58-7.8042q0-0.59162-0.59162-0.9265-0.58046-0.34604-1.8753-0.61395-4.3088-0.90418-4.3088-3.6614 0-1.6074 1.3284-2.679 1.3395-1.0828 3.4939-1.0828 2.2995 0 3.6725 1.0828 1.3842 1.0828 1.3842 2.813h-3.226q0-0.69209-0.44651-1.1386-0.4465-0.45767-1.3953-0.45767-0.81488 0-1.2614 0.36837t-0.44651 0.93767q0 0.53581 0.50233 0.87069 0.51348 0.32372 1.719 0.5693 1.2056 0.23442 2.0316 0.53581 2.5563 0.93767 2.5563 3.2483 0 1.6521-1.4177 2.679-1.4177 1.0158-3.6614 1.0158-1.5181 0-2.7014-0.53581-1.1721-0.54697-1.8418-1.4846-0.66976-0.94883-0.66976-2.0428h3.0586q0.0446 0.85953 0.63628 1.3172 0.59162 0.45767 1.5851 0.45767 0.9265 0 1.3953-0.34604 0.48-0.35721 0.48-0.9265z"/>
   <path d="m193.79-4.4666q-0.22325-0.43535-0.32372-1.0828-1.1721 1.306-3.0474 1.306-1.7749 0-2.947-1.027-1.1609-1.027-1.1609-2.5897 0-1.92 1.4177-2.947 1.4288-1.027 4.119-1.0381h1.4846v-0.69209q0-0.8372-0.43535-1.3395-0.42418-0.50232-1.3507-0.50232-0.81488 0-1.2837 0.3907-0.45767 0.39069-0.45767 1.0716h-3.226q0-1.0493 0.64743-1.9423 0.64744-0.89302 1.8307-1.3953 1.1832-0.51348 2.6567-0.51348 2.2325 0 3.5386 1.1274 1.3172 1.1163 1.3172 3.1479v5.2353q0.0112 1.7191 0.48 2.6009v0.18977zm-2.6679-2.2437q0.71441 0 1.3172-0.31256 0.60279-0.32372 0.89302-0.85953v-2.0763h-1.2056q-2.4223 0-2.5786 1.6744l-0.0112 0.18977q0 0.60279 0.42419 0.99348 0.42418 0.39069 1.1609 0.39069z"/>
   <path d="m204.07-6.8442q0.89302 0 1.4512-0.49116 0.55814-0.49116 0.58046-1.306h3.0251q-0.0112 1.2279-0.66976 2.2549-0.6586 1.0158-1.8084 1.5851-1.1386 0.55813-2.5228 0.55813-2.5897 0-4.0855-1.6409-1.4958-1.6521-1.4958-4.5544v-0.21209q0-2.7907 1.4846-4.4539 1.4846-1.6632 4.0744-1.6632 2.266 0 3.6279 1.2949 1.373 1.2837 1.3953 3.4269h-3.0251q-0.0223-0.93767-0.58046-1.5181-0.55813-0.59162-1.4735-0.59162-1.1274 0-1.7079 0.82604-0.5693 0.81488-0.5693 2.6567v0.33488q0 1.8642 0.5693 2.679 0.5693 0.81488 1.7302 0.81488z"/>
   <path d="m214.83-19.514v2.9693h2.0651v2.3665h-2.0651v6.0279q0 0.66976 0.25674 0.95999 0.25675 0.29023 0.98232 0.29023 0.53581 0 0.94883-0.078139v2.4446q-0.94883 0.29023-1.9535 0.29023-3.3935 0-3.4604-3.4269v-6.5079h-1.7637v-2.3665h1.7637v-2.9693z"/>
   <path d="m222.1-4.4666h-3.2372v-12.078h3.2372zm-3.427-15.204q0-0.72558 0.47999-1.1944 0.49116-0.46883 1.3284-0.46883 0.82603 0 1.3172 0.46883t0.49116 1.1944q0 0.73674-0.50232 1.2056-0.49116 0.46883-1.306 0.46883-0.81488 0-1.3172-0.46883-0.49116-0.46883-0.49116-1.2056z"/>
   <path d="m224.25-10.617q0-1.7972 0.69209-3.2037t1.987-2.1767q1.306-0.77023 3.0251-0.77023 2.4446 0 3.9851 1.4958 1.5516 1.4958 1.7302 4.0632l0.0223 0.82604q0 2.7795-1.5516 4.4651-1.5516 1.6744-4.1637 1.6744t-4.1748-1.6744q-1.5516-1.6744-1.5516-4.5544zm3.226 0.23442q0 1.7191 0.64744 2.6344 0.64743 0.90418 1.853 0.90418 1.1721 0 1.8307-0.89302 0.6586-0.90418 0.6586-2.88 0-1.6856-0.6586-2.6121t-1.853-0.9265q-1.1832 0-1.8307 0.9265-0.64744 0.91534-0.64744 2.8465z"/>
   <path d="m240.65-16.545 0.10046 1.3953q1.2949-1.6186 3.4716-1.6186 1.92 0 2.8576 1.1274 0.93767 1.1274 0.95999 3.3711v7.8027h-3.226v-7.7246q0-1.027-0.4465-1.4846-0.44651-0.46883-1.4846-0.46883-1.3618 0-2.0428 1.1609v8.5171h-3.226v-12.078z"/>
   <path d="m257.03-7.8042q0-0.59162-0.59163-0.9265-0.58046-0.34604-1.8753-0.61395-4.3088-0.90418-4.3088-3.6614 0-1.6074 1.3284-2.679 1.3395-1.0828 3.4939-1.0828 2.2995 0 3.6725 1.0828 1.3842 1.0828 1.3842 2.813h-3.226q0-0.69209-0.44651-1.1386-0.44651-0.45767-1.3953-0.45767-0.81488 0-1.2614 0.36837-0.44651 0.36837-0.44651 0.93767 0 0.53581 0.50232 0.87069 0.51348 0.32372 1.719 0.5693 1.2056 0.23442 2.0316 0.53581 2.5562 0.93767 2.5562 3.2483 0 1.6521-1.4177 2.679-1.4177 1.0158-3.6614 1.0158-1.5181 0-2.7014-0.53581-1.1721-0.54697-1.8418-1.4846-0.66976-0.94883-0.66976-2.0428h3.0586q0.0447 0.85953 0.63627 1.3172 0.59162 0.45767 1.5851 0.45767 0.92651 0 1.3953-0.34604 0.48-0.35721 0.48-0.9265z"/>
  </g>
 </g>
 <g transform="matrix(.71451 0 0 .71451 51.86 14.732)">
  <g transform="matrix(.64178 .27125 -.64178 1.0123 85.439 -10.545)">
   <g transform="translate(-1.154 -1.154)" fill="none" stroke="#000">
    <g transform="matrix(2.566 -.68755 1.6268 1.6268 -325.15 -15.64)" stroke-linecap="square" stroke-linejoin="bevel" style="paint-order:markers fill stroke">
     <path d="m104.4 78.485-14.016 8.0923-14.016-8.0923v-16.185l14.016-8.0923 14.016 8.0923z" style="paint-order:markers fill stroke"/>
     <g style="paint-order:markers fill stroke">
      <path d="m76.372 62.301 14.082 8.0998 13.951-8.0998-13.958 8.1374z" style="paint-order:markers fill stroke"/>
      <path d="m90.454 70.401-0.06529 16.177z" style="paint-order:markers fill stroke"/>
     </g>
    </g>
    <path d="m37.846 38.368h18.358" stroke-linecap="round" stroke-linejoin="round" stroke-width="2.6541"/>
    <path d="m47.025 29.189v18.358" stroke-linecap="round" stroke-linejoin="round" stroke-width="2.6541"/>
   </g>
  </g>
 </g>
</svg>
