
<svg width="800" height="418" version="1.1" viewBox="0 0 211.67 110.6" xmlns="http://www.w3.org/2000/svg" xmlns:cc="http://creativecommons.org/ns#" xmlns:dc="http://purl.org/dc/elements/1.1/" xmlns:rdf="http://www.w3.org/1999/02/22-rdf-syntax-ns#" xmlns:xlink="http://www.w3.org/1999/xlink">
 <defs>
  <linearGradient id="a" x1="-139.34" x2="323.61" y1="-36.821" y2="-146.27" gradientTransform="translate(3.7579e-7 -.0031725)" gradientUnits="userSpaceOnUse">
   <stop stop-color="#007fff" offset="0"/>
   <stop stop-color="#ff49d1" offset="1"/>
  </linearGradient>
 </defs>
 <metadata>
  <rdf:RDF>
   <cc:Work rdf:about="">
    <dc:format>image/svg+xml</dc:format>
    <dc:type rdf:resource="http://purl.org/dc/dcmitype/StillImage"/>
    <dc:title/>
   </cc:Work>
  </rdf:RDF>
 </metadata>
 <text transform="matrix(.8235 0 0 .8235 .034272 1.214)" fill="#000000" font-family="sans-serif" font-size="10.583px" style="line-height:0.9;shape-inside:url(#rect1669);white-space:pre" xml:space="preserve"/>
 <text transform="matrix(.8235 0 0 .8235 .034272 1.214)" fill="#000000" font-family="sans-serif" font-size="10.583px" style="line-height:0.9;shape-inside:url(#rect1681);white-space:pre" xml:space="preserve"/>
 <text transform="matrix(1.2345 0 0 1.2345 37.637 21.064)" fill="#ffffff" fill-opacity=".10335" font-family="sans-serif" font-size="2.8222px" style="line-height:1.25;shape-inside:url(#rect9649);white-space:pre" xml:space="preserve"><tspan x="105.21875" y="71.082941"><tspan fill="#ffffff" fill-opacity=".10335">{{ now(utc=true) | date(format="%Y-%m-%d %H:%M:%S UTC") }}</tspan></tspan></text>
 <text transform="matrix(.8235 0 0 .8235 .034272 1.214)" font-family="sans-serif" font-size="2.8222px" style="line-height:1.25;shape-inside:url(#rect11123);white-space:pre" xml:space="preserve"/>
 <rect width="211.67" height="110.6" fill="#fefefe" fill-rule="evenodd" style="paint-order:stroke markers fill"/>
 <rect transform="scale(1,-1)" x="-1.7764e-15" y="-110.6" width="211.67" height="16" fill="url(#a)" fill-rule="evenodd" style="paint-order:markers fill stroke"/>
 <g transform="matrix(.61725 0 0 .61725 .19417 -1.6619)">
  <g transform="matrix(.56497 0 0 .56497 5.1975 157.51)" stroke="#fff" stroke-linecap="round">
   <g transform="matrix(.4614 0 0 .4614 -18.074 -13.326)" stroke-width="2.3" style="paint-order:stroke fill markers">
    <g transform="translate(-4.7302 9.9297)" stroke="#fff" stroke-linecap="round" stroke-width="2.3" style="paint-order:stroke fill markers">
     <g fill="#f04b4b" stroke="#fff" stroke-linecap="round" stroke-width="2.3" style="paint-order:stroke fill markers">
      <g transform="translate(-21.682 -4.325)" stroke="#fff" stroke-linecap="round" stroke-width="2.3" style="paint-order:stroke fill markers">
       <path d="m123.68 48.356 7.961 4.5963v27.444l-23.767 13.722-15.857-9.1551" fill="none" style="paint-order:stroke fill markers"/>
       <path d="m107.87 94.119 0.0165-27.443" fill="#f04b4b" style="paint-order:stroke fill markers"/>
       <path d="m107.89 66.676 23.751-13.724" fill="#f04b4b" style="paint-order:stroke fill markers"/>
      </g>
     </g>
    </g>
   </g>
   <g transform="matrix(.4614 0 0 .4614 -30.044 -19.974)" fill="none" stroke-dasharray="4.836, 4.836" stroke-dashoffset="13.299" stroke-linejoin="round" stroke-miterlimit="0" stroke-width="2.418" style="paint-order:markers fill stroke">
    <g transform="translate(-11.036 6.2362)" fill="none" stroke="#fff" stroke-dasharray="4.836, 4.836" stroke-dashoffset="13.299" stroke-linecap="round" stroke-linejoin="round" stroke-miterlimit="0" stroke-width="2.418" style="paint-order:markers fill stroke">
     <g fill="none" stroke="#fff" stroke-dasharray="4.836, 4.836" stroke-dashoffset="13.299" stroke-linecap="round" stroke-linejoin="round" stroke-miterlimit="0" stroke-width="2.418" style="paint-order:markers fill stroke">
      <g transform="translate(2.3231 .20229)" fill="none" stroke="#fff" stroke-dasharray="4.836, 4.836" stroke-dashoffset="13.299" stroke-linecap="round" stroke-linejoin="round" stroke-miterlimit="0" stroke-width="2.418" style="paint-order:markers fill stroke">
       <g transform="translate(-18.774 -6.6742)" fill="none" stroke="#fff" stroke-dasharray="4.836, 4.836" stroke-dashoffset="13.299" stroke-linecap="round" stroke-linejoin="round" stroke-miterlimit="0" stroke-width="2.418" style="paint-order:markers fill stroke">
        <path d="m134.91 86.923-23.784-13.724m7.9159 32.014-7.9159-4.5703v-27.444l23.767-13.722 15.804 9.1243" fill="none" stroke="#fff" stroke-dasharray="4.836, 4.836" stroke-dashoffset="13.299" stroke-linecap="round" stroke-linejoin="round" stroke-miterlimit="0" stroke-width="2.418" style="paint-order:markers fill stroke"/>
       </g>
      </g>
     </g>
    </g>
   </g>
  </g>
  <text transform="translate(-6.6414 158.14)" fill="#ffffff" font-family="sans-serif" font-size="10.583px" style="line-height:1.25;shape-inside:url(#rect1675-6-3);white-space:pre" xml:space="preserve"><tspan x="33.34375" y="14.080537"><tspan>{{ config.title }}</tspan></tspan></text>
 </g>
 <g transform="matrix(.61725 0 0 .61725 10.683 -4.8296)" style="shape-inside:url(#rect835-3);white-space:pre" aria-label="Missing Transaction">
  <path d="m48.214 21.739 4.1231 11.642 4.101-11.642h4.3436v16.051h-3.3183v-4.3877l0.33073-7.5737-4.3326 11.961h-2.271l-4.3215-11.95 0.33073 7.5627v4.3877h-3.3073v-16.051z"/>
  <path d="m66.823 37.791h-3.1971v-11.928h3.1971zm-3.3845-15.015q0-0.71658 0.47405-1.1796 0.48507-0.46302 1.3119-0.46302 0.8158 0 1.3009 0.46302 0.48507 0.46302 0.48507 1.1796 0 0.7276-0.4961 1.1906-0.48507 0.46302-1.2898 0.46302t-1.3009-0.46302q-0.48507-0.46302-0.48507-1.1906z"/>
  <path d="m75.907 34.494q0-0.58429-0.58429-0.91502-0.57326-0.34175-1.8521-0.60634-4.2554-0.89297-4.2554-3.616 0-1.5875 1.3119-2.6458 1.3229-1.0694 3.4506-1.0694 2.271 0 3.627 1.0694 1.367 1.0694 1.367 2.7781h-3.186q0-0.68351-0.44097-1.1245-0.44097-0.452-1.378-0.452-0.80478 0-1.2457 0.3638-0.44097 0.3638-0.44097 0.92604 0 0.52917 0.49609 0.8599 0.50712 0.3197 1.6977 0.56224 1.1906 0.23151 2.0064 0.52917 2.5246 0.92604 2.5246 3.2081 0 1.6316-1.4001 2.6458-1.4001 1.0032-3.616 1.0032-1.4993 0-2.6679-0.52917-1.1576-0.54019-1.819-1.4662-0.66146-0.93707-0.66146-2.0174h3.0207q0.0441 0.84887 0.62839 1.3009 0.58429 0.452 1.5655 0.452 0.91502 0 1.378-0.34175 0.47404-0.35278 0.47404-0.91502z"/>
  <path d="m87.515 34.494q0-0.58429-0.58429-0.91502-0.57326-0.34175-1.8521-0.60634-4.2554-0.89297-4.2554-3.616 0-1.5875 1.3119-2.6458 1.3229-1.0694 3.4506-1.0694 2.271 0 3.627 1.0694 1.367 1.0694 1.367 2.7781h-3.186q0-0.68351-0.44097-1.1245-0.44097-0.452-1.378-0.452-0.80478 0-1.2457 0.3638-0.44097 0.3638-0.44097 0.92604 0 0.52917 0.49609 0.8599 0.50712 0.3197 1.6977 0.56224 1.1906 0.23151 2.0064 0.52917 2.5246 0.92604 2.5246 3.2081 0 1.6316-1.4001 2.6458-1.4001 1.0032-3.616 1.0032-1.4993 0-2.6679-0.52917-1.1576-0.54019-1.819-1.4662-0.66146-0.93707-0.66146-2.0174h3.0207q0.0441 0.84887 0.62839 1.3009 0.58429 0.452 1.5655 0.452 0.91502 0 1.378-0.34175 0.47405-0.35278 0.47405-0.91502z"/>
  <path d="m96.026 37.791h-3.1971v-11.928h3.1971zm-3.3845-15.015q0-0.71658 0.47404-1.1796 0.48507-0.46302 1.3119-0.46302 0.8158 0 1.3009 0.46302 0.48507 0.46302 0.48507 1.1796 0 0.7276-0.49609 1.1906-0.48507 0.46302-1.2898 0.46302t-1.3009-0.46302q-0.48507-0.46302-0.48507-1.1906z"/>
  <path d="m101.58 25.862 0.0992 1.378q1.2788-1.5985 3.4286-1.5985 1.8962 0 2.8222 1.1135t0.94809 3.3293v7.706h-3.186v-7.6288q0-1.0142-0.44098-1.4662-0.44097-0.46302-1.4662-0.46302-1.345 0-2.0174 1.1465v8.4116h-3.186v-11.928z"/>
  <path d="m110.83 31.738q0-2.7451 1.3009-4.4208 1.3119-1.6757 3.5278-1.6757 1.9623 0 3.0537 1.345l0.13229-1.1245h2.8884v11.531q0 1.5655-0.71658 2.723-0.70556 1.1576-1.9954 1.7639-1.2898 0.60634-3.0207 0.60634-1.3119 0-2.5576-0.52917-1.2458-0.51814-1.8852-1.345l1.4111-1.9403q1.1906 1.3339 2.8884 1.3339 1.2678 0 1.9734-0.68351 0.70556-0.67248 0.70556-1.9182v-0.63941q-1.1024 1.2457-2.8994 1.2457-2.1497 0-3.4837-1.6757-1.3229-1.6867-1.3229-4.4648zm3.186 0.23151q0 1.6206 0.65043 2.5466 0.65044 0.91502 1.7859 0.91502 1.4552 0 2.0836-1.0914v-5.0161q-0.63941-1.0914-2.0616-1.0914-1.1465 0-1.808 0.93707-0.65043 0.93707-0.65043 2.8002z"/>
  <path d="m141.44 24.418h-4.9168v13.372h-3.3073v-13.372h-4.8507v-2.6789h13.075z"/>
  <path d="m149.1 28.85q-0.65044-0.08819-1.1465-0.08819-1.808 0-2.3702 1.2237v7.8052h-3.186v-11.928h3.0096l0.0882 1.4221q0.95911-1.6426 2.6569-1.6426 0.52917 0 0.99219 0.14332z"/>
  <path d="m157.21 37.791q-0.22049-0.42995-0.31971-1.0694-1.1576 1.2898-3.0096 1.2898-1.7529 0-2.9104-1.0142-1.1465-1.0142-1.1465-2.5576 0-1.8962 1.4001-2.9104 1.4111-1.0142 4.068-1.0253h1.4662v-0.68351q0-0.82682-0.42995-1.3229-0.41892-0.49609-1.3339-0.49609-0.80478 0-1.2678 0.38585-0.452 0.38585-0.452 1.0583h-3.186q0-1.0363 0.63941-1.9182 0.63941-0.88194 1.808-1.378 1.1686-0.50712 2.6238-0.50712 2.2049 0 3.4947 1.1135 1.3009 1.1024 1.3009 3.1089v5.1704q0.011 1.6977 0.47405 2.5687v0.18741zm-2.6348-2.2159q0.70556 0 1.3009-0.30868 0.59532-0.31971 0.88195-0.84887v-2.0505h-1.1906q-2.3923 0-2.5466 1.6536l-0.011 0.18741q0 0.59531 0.41892 0.98116 0.41893 0.38585 1.1465 0.38585z"/>
  <path d="m165.34 25.862 0.0992 1.378q1.2788-1.5985 3.4286-1.5985 1.8962 0 2.8222 1.1135t0.94809 3.3293v7.706h-3.186v-7.6288q0-1.0142-0.44097-1.4662-0.44097-0.46302-1.4662-0.46302-1.345 0-2.0174 1.1465v8.4116h-3.186v-11.928z"/>
  <path d="m181.51 34.494q0-0.58429-0.58429-0.91502-0.57327-0.34175-1.8521-0.60634-4.2554-0.89297-4.2554-3.616 0-1.5875 1.3119-2.6458 1.3229-1.0694 3.4506-1.0694 2.271 0 3.627 1.0694 1.367 1.0694 1.367 2.7781h-3.186q0-0.68351-0.44097-1.1245-0.44098-0.452-1.378-0.452-0.80478 0-1.2458 0.3638-0.44097 0.3638-0.44097 0.92604 0 0.52917 0.49609 0.8599 0.50712 0.3197 1.6978 0.56224 1.1906 0.23151 2.0064 0.52917 2.5246 0.92604 2.5246 3.2081 0 1.6316-1.4001 2.6458-1.4001 1.0032-3.616 1.0032-1.4993 0-2.6679-0.52917-1.1576-0.54019-1.819-1.4662-0.66146-0.93707-0.66146-2.0174h3.0207q0.0441 0.84887 0.62839 1.3009t1.5654 0.452q0.91502 0 1.378-0.34175 0.47405-0.35278 0.47405-0.91502z"/>
  <path d="m193.57 37.791q-0.22049-0.42995-0.31971-1.0694-1.1576 1.2898-3.0096 1.2898-1.7529 0-2.9104-1.0142-1.1465-1.0142-1.1465-2.5576 0-1.8962 1.4001-2.9104 1.4111-1.0142 4.068-1.0253h1.4662v-0.68351q0-0.82682-0.42995-1.3229-0.41892-0.49609-1.3339-0.49609-0.80478 0-1.2678 0.38585-0.452 0.38585-0.452 1.0583h-3.186q0-1.0363 0.63941-1.9182 0.63941-0.88194 1.808-1.378 1.1686-0.50712 2.6238-0.50712 2.2049 0 3.4947 1.1135 1.3009 1.1024 1.3009 3.1089v5.1704q0.011 1.6977 0.47405 2.5687v0.18741zm-2.6348-2.2159q0.70556 0 1.3009-0.30868 0.59532-0.31971 0.88195-0.84887v-2.0505h-1.1906q-2.3923 0-2.5466 1.6536l-0.011 0.18741q0 0.59531 0.41892 0.98116 0.41893 0.38585 1.1465 0.38585z"/>
  <path d="m203.72 35.442q0.88194 0 1.4332-0.48507 0.55121-0.48507 0.57326-1.2898h2.9876q-0.011 1.2127-0.66146 2.2269-0.65043 1.0032-1.7859 1.5655-1.1245 0.55122-2.4915 0.55122-2.5576 0-4.0349-1.6206-1.4773-1.6316-1.4773-4.4979v-0.20946q0-2.7561 1.4662-4.3987 1.4662-1.6426 4.0239-1.6426 2.2379 0 3.5829 1.2788 1.356 1.2678 1.378 3.3845h-2.9876q-0.0221-0.92604-0.57326-1.4993-0.55122-0.58429-1.4552-0.58429-1.1135 0-1.6867 0.8158-0.56224 0.80478-0.56224 2.6238v0.33073q0 1.8411 0.56224 2.6458 0.56224 0.80478 1.7088 0.80478z"/>
  <path d="m214.35 22.93v2.9325h2.0395v2.3372h-2.0395v5.9531q0 0.66146 0.25356 0.94809t0.97014 0.28663q0.52917 0 0.93707-0.07717v2.4143q-0.93707 0.28663-1.9293 0.28663-3.3514 0-3.4175-3.3845v-6.4272h-1.7418v-2.3372h1.7418v-2.9325z"/>
  <path d="m221.53 37.791h-3.197v-11.928h3.197zm-3.3845-15.015q0-0.71658 0.47405-1.1796 0.48507-0.46302 1.3119-0.46302 0.8158 0 1.3009 0.46302 0.48507 0.46302 0.48507 1.1796 0 0.7276-0.49609 1.1906-0.48507 0.46302-1.2898 0.46302-0.80477 0-1.3009-0.46302-0.48507-0.46302-0.48507-1.1906z"/>
  <path d="m223.65 31.716q0-1.7749 0.68351-3.164t1.9623-2.1497q1.2898-0.76068 2.9876-0.76068 2.4143 0 3.9357 1.4773 1.5324 1.4773 1.7088 4.0129l0.022 0.8158q0 2.7451-1.5324 4.4097-1.5324 1.6536-4.1121 1.6536t-4.1231-1.6536q-1.5324-1.6536-1.5324-4.4979zm3.186 0.23151q0 1.6977 0.63941 2.6017 0.63941 0.89297 1.83 0.89297 1.1576 0 1.808-0.88195 0.65043-0.89297 0.65043-2.8443 0-1.6647-0.65043-2.5797-0.65044-0.91502-1.83-0.91502-1.1686 0-1.808 0.91502-0.63941 0.90399-0.63941 2.8112z"/>
  <path d="m239.85 25.862 0.0992 1.378q1.2788-1.5985 3.4286-1.5985 1.8962 0 2.8222 1.1135t0.94809 3.3293v7.706h-3.186v-7.6288q0-1.0142-0.44097-1.4662-0.44097-0.46302-1.4662-0.46302-1.345 0-2.0174 1.1465v8.4116h-3.186v-11.928z"/>
 </g>
 <text transform="matrix(.68059 0 0 .68059 -3.2673 29.117)" fill="#000000" font-family="sans-serif" font-size="9.1445px" stroke-width="0" style="line-height:0.9;shape-inside:url(#rect1334-5);white-space:pre" xml:space="preserve"><tspan x="12.503906" y="79.72482"><tspan fill="#000000" font-size="9.1445px" stroke-linecap="round" stroke-linejoin="round" stroke-width="0" style="paint-order:stroke markers fill">{{ data.tags | join(sep=", ")}}</tspan></tspan></text>
 <text transform="matrix(.61725 0 0 .61725 6.8582 -52.417)" fill="#000000" font-family="sans-serif" font-size="10.583px" style="line-height:0.9;shape-inside:url(#rect1065-8);white-space:pre" xml:space="preserve"><tspan x="49.126953" y="131.26166"><tspan fill="#000000" font-family="sans-serif">missing from {{ data.block_count }} or more blocks</tspan></tspan></text>
 <g transform="matrix(.68059 0 0 .68059 -6.315 16.77)" style="shape-inside:url(#rect1328);white-space:pre" aria-label="feerate  ">
  <path d="m19.28 82.894v-4.8524h-0.88366v-0.73897h0.88366v-0.57361q0-0.89917 0.48059-1.3901 0.48059-0.49092 1.3591-0.49092 0.33073 0 0.65629 0.08785l-0.05168 0.77514q-0.24288-0.04651-0.51676-0.04651-0.46509 0-0.7183 0.27388-0.25321 0.26872-0.25321 0.77514v0.58911h1.1937v0.73897h-1.1937v4.8524z"/>
  <path d="m24.68 82.998q-1.1369 0-1.85-0.74414-0.71313-0.74931-0.71313-1.9999v-0.1757q0-0.83199 0.31523-1.4831 0.32039-0.65629 0.88883-1.0232 0.57361-0.37207 1.2402-0.37207 1.0904 0 1.695 0.7183 0.60461 0.7183 0.60461 2.0567v0.39791h-3.7879q0.02067 0.82682 0.48059 1.3384 0.46509 0.50643 1.1782 0.50643 0.50643 0 0.85783-0.2067 0.3514-0.2067 0.61495-0.54777l0.58394 0.45475q-0.7028 1.08-2.1084 1.08zm-0.11886-5.0126q-0.57877 0-0.97151 0.42375-0.39274 0.41858-0.48576 1.1782h2.8009v-0.07235q-0.04134-0.72864-0.39274-1.1265-0.3514-0.40308-0.95084-0.40308z"/>
  <path d="m30.287 82.998q-1.1369 0-1.85-0.74414-0.71313-0.74931-0.71313-1.9999v-0.1757q0-0.83199 0.31522-1.4831 0.32039-0.65629 0.88883-1.0232 0.57361-0.37207 1.2402-0.37207 1.0904 0 1.695 0.7183 0.60461 0.7183 0.60461 2.0567v0.39791h-3.7879q0.02067 0.82682 0.48059 1.3384 0.46509 0.50643 1.1782 0.50643 0.50643 0 0.85783-0.2067 0.3514-0.2067 0.61495-0.54777l0.58394 0.45475q-0.7028 1.08-2.1084 1.08zm-0.11886-5.0126q-0.57877 0-0.97151 0.42375-0.39274 0.41858-0.48576 1.1782h2.8009v-0.07235q-0.04134-0.72864-0.39274-1.1265-0.3514-0.40308-0.95084-0.40308z"/>
  <path d="m36.276 78.161q-0.21704-0.03617-0.47025-0.03617-0.94051 0-1.2764 0.80098v3.9687h-0.95601v-5.5914h0.93017l0.0155 0.64595q0.47025-0.74931 1.3332-0.74931 0.27905 0 0.42374 0.07235z"/>
  <path d="m40.4 82.894q-0.08268-0.16536-0.13436-0.58911-0.66662 0.69246-1.5916 0.69246-0.82682 0-1.3591-0.46509-0.5271-0.47025-0.5271-1.1886 0-0.87333 0.66146-1.3539 0.66662-0.48576 1.8707-0.48576h0.93017v-0.43925q0-0.50126-0.29972-0.79581-0.29972-0.29972-0.88366-0.29972-0.5116 0-0.85783 0.25838t-0.34623 0.62528h-0.96118q0-0.41858 0.29456-0.80615 0.29972-0.39274 0.80615-0.62012 0.5116-0.22738 1.1214-0.22738 0.96635 0 1.5141 0.48576 0.54777 0.48059 0.56844 1.3281v2.5735q0 0.76998 0.19637 1.2247v0.08268zm-1.5865-0.72864q0.44958 0 0.85266-0.23254 0.40308-0.23254 0.58394-0.60461v-1.1472h-0.74931q-1.757 0-1.757 1.0284 0 0.44958 0.29972 0.7028 0.29972 0.25321 0.76998 0.25321z"/>
  <path d="m44.002 75.949v1.3539h1.0439v0.73897h-1.0439v3.4675q0 0.3359 0.13953 0.50643 0.13953 0.16536 0.47542 0.16536 0.16536 0 0.45475-0.06201v0.77514q-0.37724 0.10335-0.7338 0.10335-0.64079 0-0.96635-0.38757-0.32556-0.38757-0.32556-1.1007v-3.4675h-1.018v-0.73897h1.018v-1.3539z"/>
  <path d="m48.482 82.998q-1.1369 0-1.85-0.74414-0.71313-0.74931-0.71313-1.9999v-0.1757q0-0.83199 0.31522-1.4831 0.32039-0.65629 0.88883-1.0232 0.57361-0.37207 1.2402-0.37207 1.0904 0 1.695 0.7183t0.60461 2.0567v0.39791h-3.7879q0.02067 0.82682 0.48059 1.3384 0.46509 0.50643 1.1782 0.50643 0.50643 0 0.85783-0.2067 0.3514-0.2067 0.61495-0.54777l0.58394 0.45475q-0.7028 1.08-2.1084 1.08zm-0.11886-5.0126q-0.57877 0-0.97151 0.42375-0.39274 0.41858-0.48576 1.1782h2.8009v-0.07235q-0.04134-0.72864-0.39274-1.1265-0.3514-0.40308-0.95084-0.40308z"/>
 </g>
 <text transform="matrix(.68059 0 0 .68059 -13.979 3.0369)" fill="#000000" font-family="sans-serif" font-size="10.288px" style="line-height:1.25;shape-inside:url(#rect1071-1);white-space:pre" xml:space="preserve"><tspan x="74.757812" y="101.59617"><tspan font-family="sans-serif" font-size="10.288px" font-weight="bold">{{ data.feerate }} sat/vByte</tspan></tspan></text>
 <g transform="matrix(1.1026 0 0 1.1026 -.61778 -10.905)">
  <g transform="matrix(.61725 0 0 .61725 -5.2787 16.087)" style="shape-inside:url(#rect1328-4);white-space:pre" aria-label="size">
   <path d="m22.065 81.308q0-0.38757-0.29456-0.59944-0.28939-0.21704-1.018-0.37207-0.72347-0.15503-1.1524-0.37207-0.42374-0.21704-0.63045-0.51676-0.20154-0.29972-0.20154-0.71313 0-0.68729 0.57877-1.1627 0.58394-0.47542 1.4883-0.47542 0.95084 0 1.54 0.49092 0.59428 0.49092 0.59428 1.2557h-0.96118q0-0.39274-0.3359-0.67696-0.33073-0.28422-0.83716-0.28422-0.52193 0-0.81648 0.22738-0.29456 0.22738-0.29456 0.59428 0 0.34623 0.27388 0.52193 0.27388 0.1757 0.98702 0.3359 0.7183 0.1602 1.1627 0.3824t0.65629 0.53743q0.21704 0.31006 0.21704 0.75964 0 0.74931-0.59944 1.2041-0.59944 0.44958-1.5555 0.44958-0.67179 0-1.1886-0.23771-0.51676-0.23771-0.81132-0.66146-0.28939-0.42891-0.28939-0.925h0.95601q0.02584 0.48059 0.3824 0.76481 0.36173 0.27905 0.95084 0.27905 0.5426 0 0.86816-0.21704 0.33073-0.22221 0.33073-0.58911z"/>
   <path d="m25.305 82.791h-0.95601v-5.5914h0.95601zm-1.0335-7.0745q0-0.23254 0.13953-0.39274 0.14469-0.1602 0.42374-0.1602t0.42375 0.1602q0.14469 0.1602 0.14469 0.39274 0 0.23254-0.14469 0.38757-0.14469 0.15503-0.42375 0.15503t-0.42374-0.15503q-0.13953-0.15503-0.13953-0.38757z"/>
   <path d="m27.734 82.011h3.2711v0.78031h-4.439v-0.7028l3.0851-4.0979h-3.0386v-0.79065h4.2375v0.67696z"/>
   <path d="m34.317 82.894q-1.1369 0-1.85-0.74414-0.71313-0.74931-0.71313-1.9999v-0.1757q0-0.83199 0.31522-1.4831 0.32039-0.65629 0.88883-1.0232 0.57361-0.37207 1.2402-0.37207 1.0904 0 1.695 0.7183t0.60461 2.0567v0.39791h-3.7879q0.02067 0.82682 0.48059 1.3384 0.46509 0.50643 1.1782 0.50643 0.50643 0 0.85783-0.2067 0.3514-0.2067 0.61495-0.54777l0.58394 0.45475q-0.7028 1.08-2.1084 1.08zm-0.11886-5.0126q-0.57877 0-0.97151 0.42374-0.39274 0.41858-0.48576 1.1782h2.8009v-0.07235q-0.041341-0.72863-0.39274-1.1265-0.3514-0.40308-0.95084-0.40308z"/>
  </g>
 </g>
 <g transform="matrix(1.1026 0 0 1.1026 -22.917 -10.479)">
  <text transform="matrix(.61725 0 0 .61725 8.0829 3.6978)" fill="#000000" font-family="sans-serif" font-size="10.583px" style="line-height:1.25;shape-inside:url(#rect1071-5-6);white-space:pre" xml:space="preserve"><tspan x="74.757812" y="101.85788"><tspan font-family="sans-serif" font-weight="bold">{{ data.size }} vByte</tspan></tspan></text>
 </g>
 <g transform="matrix(.61725 0 0 .61725 7.8152 -6.6722)">
  <text transform="translate(-61.661 -15.719)" x="297.45364" fill="#000000" font-family="sans-serif" font-size="9.1445px" style="line-height:1.25;shape-inside:url(#rect1687-5-1);white-space:pre" xml:space="preserve"><tspan x="57.457031" y="87.077059"><tspan fill="#6f6f6f">transaction id</tspan><tspan font-family="sans-serif" font-size="9.1445px">
</tspan></tspan><tspan x="57.457031" y="98.507669"><tspan font-family="sans-serif" font-size="9.1445px">{{ data.txid }}</tspan></tspan></text>
 </g>
 <g transform="matrix(.68059 0 0 .68059 -6.315 -2.3048)" style="shape-inside:url(#rect1328-4-2);white-space:pre" aria-label="fee">
  <path d="m19.28 82.791v-4.8524h-0.88366v-0.73897h0.88366v-0.57361q0-0.89917 0.48059-1.3901 0.48059-0.49092 1.3591-0.49092 0.33073 0 0.65629 0.08785l-0.05168 0.77514q-0.24288-0.04651-0.51676-0.04651-0.46509 0-0.7183 0.27388-0.25321 0.26872-0.25321 0.77514v0.58911h1.1937v0.73897h-1.1937v4.8524z"/>
  <path d="m24.68 82.894q-1.1369 0-1.85-0.74414-0.71313-0.74931-0.71313-1.9999v-0.1757q0-0.83199 0.31523-1.4831 0.32039-0.65629 0.88883-1.0232 0.57361-0.37207 1.2402-0.37207 1.0904 0 1.695 0.7183 0.60461 0.7183 0.60461 2.0567v0.39791h-3.7879q0.02067 0.82682 0.48059 1.3384 0.46509 0.50643 1.1782 0.50643 0.50643 0 0.85783-0.2067 0.3514-0.2067 0.61495-0.54777l0.58394 0.45475q-0.7028 1.08-2.1084 1.08zm-0.11886-5.0126q-0.57877 0-0.97151 0.42374-0.39274 0.41858-0.48576 1.1782h2.8009v-0.07235q-0.04134-0.72864-0.39274-1.1265-0.3514-0.40308-0.95084-0.40308z"/>
  <path d="m30.287 82.894q-1.1369 0-1.85-0.74414-0.71313-0.74931-0.71313-1.9999v-0.1757q0-0.83199 0.31522-1.4831 0.32039-0.65629 0.88883-1.0232 0.57361-0.37207 1.2402-0.37207 1.0904 0 1.695 0.7183 0.60461 0.7183 0.60461 2.0567v0.39791h-3.7879q0.02067 0.82682 0.48059 1.3384 0.46509 0.50643 1.1782 0.50643 0.50643 0 0.85783-0.2067 0.3514-0.2067 0.61495-0.54777l0.58394 0.45475q-0.7028 1.08-2.1084 1.08zm-0.11886-5.0126q-0.57877 0-0.97151 0.42374-0.39274 0.41858-0.48576 1.1782h2.8009v-0.07235q-0.04134-0.72864-0.39274-1.1265-0.3514-0.40308-0.95084-0.40308z"/>
 </g>
 <text transform="matrix(.68059 0 0 .68059 -13.979 -15.41)" fill="#000000" font-family="sans-serif" font-size="10.288px" style="line-height:1.25;shape-inside:url(#rect1071-5-9-5);white-space:pre" xml:space="preserve"><tspan x="74.757812" y="101.59617"><tspan font-family="sans-serif" font-size="10.288px" font-weight="bold">{{ data.fee }} sat</tspan></tspan></text>
 <g transform="matrix(.80508 0 0 .80508 -56.226 -38.659)" fill="none" stroke="#000" stroke-linecap="square" stroke-linejoin="bevel" style="paint-order:markers fill stroke">
  <path d="m104.4 78.485-14.016 8.0923-14.016-8.0923v-16.185l14.016-8.0923 14.016 8.0923z" style="paint-order:markers fill stroke"/>
  <g style="paint-order:markers fill stroke">
   <path d="m76.372 62.301 14.082 8.0998 13.951-8.0998-13.958 8.1374z" style="paint-order:markers fill stroke"/>
   <path d="m90.454 70.401-0.06529 16.177z" style="paint-order:markers fill stroke"/>
  </g>
 </g>
 <g transform="matrix(.28995 .12255 -.28995 .45736 21.017 -1.3938)" fill="none" stroke="#000" stroke-linecap="round" stroke-linejoin="round" stroke-width="2.265">
  <path d="m35.42 38.127h15.667"/>
  <path d="m43.254 30.294v15.667"/>
 </g>
</svg>
